<?xml version="1.0" encoding="UTF-8" standalone="no" ?>
<!DOCTYPE svg PUBLIC "-//W3C//DTD SVG 1.1//EN" "http://www.w3.org/Graphics/SVG/1.1/DTD/svg11.dtd">
<svg xmlns="http://www.w3.org/2000/svg" xmlns:xlink="http://www.w3.org/1999/xlink" version="1.1" width="1080" height="1080" viewBox="0 0 1080 1080" xml:space="preserve">
<desc>Created with Fabric.js 5.2.4</desc>
<defs>
</defs>
<rect x="0" y="0" width="100%" height="100%" fill="transparent"></rect>
<g transform="matrix(1 0 0 1 540 540)" id="b24ed30a-e489-446e-bf18-f24afdce6e9d"  >
</g>
<g transform="matrix(1 0 0 1 540 540)" id="9db45bf6-f477-479f-b40c-041a5ba868ca"  >
<rect style="stroke: none; stroke-width: 1; stroke-dasharray: none; stroke-linecap: butt; stroke-dashoffset: 0; stroke-linejoin: miter; stroke-miterlimit: 4; fill: rgb(255,255,255); fill-rule: nonzero; opacity: 1; visibility: hidden;" vector-effect="non-scaling-stroke"  x="-540" y="-540" rx="0" ry="0" width="1080" height="1080" />
</g>
<g transform="matrix(1 0 0 1 540 540)"  >
<path style="stroke: rgb(0,0,0); stroke-width: 0; stroke-dasharray: none; stroke-linecap: butt; stroke-dashoffset: 0; stroke-linejoin: miter; stroke-miterlimit: 4; fill: rgb(255,255,255); fill-rule: nonzero; opacity: 1;" vector-effect="non-scaling-stroke"  transform=" translate(-63.98, -63.98)" d="M 126.67 98.44 C 122.11 99.6 119.29 98.49 116.76 94.69 C 111.08000000000001 86.17999999999999 104.81 78.06 98.76 69.78999999999999 C 97.98 68.72 97.17 67.66999999999999 96.16000000000001 66.33999999999999 C 89 76 81.85 85.2 75.14 94.77 C 72.74 98.19 70.22 99.67999999999999 65.74 98.47 L 92.66 62.339999999999996 L 67.6 29.71 C 71.91 28.87 74.89 29.3 77.53 33.160000000000004 C 83.36 41.68000000000001 89.79 49.790000000000006 96.2 58.370000000000005 C 102.65 49.82000000000001 109 41.7 115 33.260000000000005 C 117.41 29.840000000000003 120 28.540000000000006 124.33 29.800000000000004 C 121.05 34.150000000000006 117.84 38.43000000000001 114.61 42.68000000000001 C 110.25 48.41000000000001 105.97 54.21000000000001 101.45 59.82000000000001 C 99.84 61.82000000000001 100.10000000000001 63.120000000000005 101.54 65.01 C 109.9 76 118.16 87.1 126.67 98.44 z M 1.33 61.74 C 2.05 58.13 2.5300000000000002 54.45 3.5300000000000002 50.910000000000004 C 9.530000000000001 29.480000000000004 34.13 20.570000000000004 51.03 33.85000000000001 C 60.93 41.64 63.39 52.62 62.9 65 L 7.1 65 C 6.26 87.21000000000001 22.25 100.62 42.63 93.78 C 49.78 91.38 53.99 85.78 56.1 78.78 C 57.17 75.27 58.94 74.72 62.24 75.72 C 60.550000000000004 84.48 56.72 91.8 48.72 96.38 C 36.72 103.24 19.59 101.02 10.579999999999998 91.49 C 5.26 85.89 3 78.92 2 71.39 C 1.85 70.19 1.54 69.01 1.3 67.82000000000001 Q 1.33 64.78 1.33 61.74000000000001 z M 7.2 60.25 L 57.63 60.25 C 57.300000000000004 44.19 47.300000000000004 32.78 33.63 32.68 C 18.630000000000003 32.56 7.850000000000001 43.7 7.200000000000003 60.25 z" stroke-linecap="round" />
</g>
</svg>