<svg xmlns="http://www.w3.org/2000/svg" id="canvas" viewBox="484.207 225.159 554.424 288.537"><path d="M 561.91,228.69 C 560.36 229.85, 559.98 231.59, 558.38 236.04 C 556.78 240.50, 556.10 243.57, 553.91 250.98 C 551.72 258.39, 550.41 263.04, 547.44 273.10 C 544.47 283.15, 542.79 289.07, 539.07 301.24 C 535.34 313.42, 533.10 320.33, 528.82 333.98 C 524.53 347.64, 522.02 355.24, 517.64 369.52 C 513.27 383.79, 510.87 391.56, 506.96 405.37 C 503.05 419.18, 501.10 426.35, 498.09 438.57 C 495.09 450.80, 493.84 456.76, 491.91 466.50 C 489.98 476.25, 489.32 480.56, 488.43 487.32 C 487.54 494.07, 486.80 496.76, 487.46 500.29 C 488.13 503.81, 489.85 505.37, 491.75 504.94 C 493.65 504.50, 495.43 502.28, 496.96 498.12 C 498.49 493.97, 498.75 489.67, 499.41 484.18 C 500.08 478.69, 501.45 473.55, 500.27 470.68 C 499.09 467.81, 495.35 467.37, 493.51 469.84 C 491.66 472.30, 491.91 477.66, 491.04 483.00 C 490.17 488.34, 489.30 492.44, 489.16 496.54 C 489.02 500.65, 489.56 502.83, 490.34 503.54 C 491.11 504.25, 492.59 503.26, 493.02 500.09 C 493.45 496.92, 492.10 494.31, 492.48 487.70 C 492.86 481.09, 493.29 476.76, 494.91 467.05 C 496.54 457.35, 497.74 451.38, 500.60 439.18 C 503.47 426.97, 505.39 419.81, 509.25 406.02 C 513.11 392.22, 515.51 384.46, 519.91 370.21 C 524.30 355.96, 526.84 348.37, 531.23 334.75 C 535.62 321.14, 537.91 314.23, 541.86 302.13 C 545.81 290.02, 547.64 284.14, 550.97 274.21 C 554.31 264.29, 555.92 259.73, 558.53 252.49 C 561.14 245.25, 562.51 242.47, 564.02 238.02 C 565.54 233.57, 566.52 232.10, 566.10 230.24 C 565.67 228.37, 563.45 227.53, 561.91 228.69" style="stroke: black; fill: black;"/><path d="M 561.98,237.58 C 561.14 238.79, 560.82 239.27, 561.47 242.43 C 562.12 245.58, 563.51 247.22, 565.23 253.35 C 566.94 259.48, 568.14 263.57, 570.05 273.08 C 571.96 282.58, 573.05 288.66, 574.76 300.88 C 576.46 313.09, 577.19 320.34, 578.57 334.15 C 579.96 347.95, 580.56 355.61, 581.70 369.89 C 582.84 384.18, 583.28 391.86, 584.28 405.57 C 585.27 419.27, 585.70 426.25, 586.66 438.40 C 587.61 450.55, 588.15 456.39, 589.05 466.31 C 589.95 476.24, 590.48 480.69, 591.14 488.02 C 591.80 495.35, 591.80 498.64, 592.35 502.95 C 592.91 507.25, 593.07 508.24, 593.93 509.53 C 594.79 510.83, 595.53 510.10, 596.67 509.41 C 597.80 508.72, 599.31 507.33, 599.59 506.11 C 599.88 504.88, 600.07 503.16, 598.09 503.29 C 596.11 503.41, 591.18 505.40, 589.69 506.72 C 588.20 508.04, 589.50 509.11, 590.64 509.89 C 591.77 510.67, 593.74 510.80, 595.34 510.63 C 596.94 510.45, 598.11 510.70, 598.63 509.00 C 599.15 507.30, 598.67 506.41, 597.95 502.11 C 597.23 497.82, 596.19 494.75, 595.02 487.53 C 593.85 480.31, 593.24 475.87, 592.10 466.00 C 590.96 456.13, 590.37 450.30, 589.30 438.18 C 588.22 426.06, 587.76 419.08, 586.73 405.38 C 585.70 391.69, 585.25 384.00, 584.15 369.70 C 583.05 355.40, 582.47 347.74, 581.22 333.89 C 579.97 320.05, 579.30 312.78, 577.88 300.48 C 576.47 288.18, 575.52 282.05, 574.14 272.38 C 572.75 262.70, 571.97 258.51, 570.96 252.11 C 569.95 245.70, 570.16 243.51, 569.10 240.36 C 568.04 237.21, 567.09 236.91, 565.67 236.35 C 564.24 235.80, 562.82 236.36, 561.98 237.58" style="stroke: black; fill: black;"/><path d="M 507.85,401.91 C 508.95 402.94, 509.67 403.80, 512.14 403.36 C 514.62 402.92, 515.97 401.81, 520.25 399.71 C 524.52 397.62, 527.41 396.05, 533.51 392.88 C 539.61 389.71, 543.55 387.77, 550.76 383.86 C 557.97 379.95, 562.14 377.57, 569.56 373.32 C 576.98 369.08, 580.90 366.66, 587.84 362.66 C 594.78 358.66, 598.29 356.59, 604.24 353.34 C 610.20 350.10, 613.14 348.55, 617.63 346.45 C 622.13 344.36, 624.34 343.59, 626.72 342.89 C 629.10 342.19, 628.52 341.57, 629.52 342.94 C 630.51 344.31, 631.07 345.14, 631.70 349.73 C 632.33 354.33, 632.56 357.92, 632.66 365.92 C 632.75 373.91, 632.56 379.38, 632.17 389.71 C 631.79 400.03, 631.35 406.49, 630.72 417.55 C 630.10 428.61, 629.61 434.84, 629.06 445.01 C 628.51 455.18, 628.27 460.33, 627.96 468.40 C 627.65 476.46, 627.31 480.03, 627.50 485.34 C 627.68 490.65, 627.35 492.78, 628.89 494.95 C 630.43 497.12, 633.16 497.63, 635.19 496.19 C 637.21 494.75, 637.64 492.94, 639.01 487.76 C 640.37 482.58, 640.34 478.88, 642.01 470.30 C 643.67 461.72, 644.59 455.82, 647.33 444.86 C 650.07 433.89, 651.91 426.80, 655.72 415.46 C 659.53 404.12, 661.97 397.70, 666.38 388.15 C 670.79 378.60, 673.43 374.03, 677.78 367.72 C 682.13 361.40, 684.68 359.30, 688.12 356.59 C 691.56 353.89, 692.74 354.02, 694.98 354.20 C 697.22 354.38, 697.47 354.36, 699.33 357.49 C 701.18 360.62, 702.53 363.11, 704.25 369.86 C 705.97 376.60, 706.82 381.58, 707.92 391.22 C 709.02 400.86, 709.22 407.11, 709.73 418.05 C 710.23 428.99, 710.22 435.53, 710.44 445.92 C 710.67 456.31, 710.60 461.64, 710.87 469.99 C 711.14 478.34, 711.16 481.86, 711.80 487.66 C 712.44 493.45, 712.15 495.88, 714.08 498.96 C 716.01 502.04, 718.26 503.11, 721.46 503.05 C 724.67 503.00, 727.19 501.49, 730.11 498.67 C 733.04 495.85, 734.45 492.88, 736.08 488.94 C 737.70 485.01, 738.95 481.48, 738.24 479.00 C 737.53 476.51, 734.77 475.45, 732.52 476.53 C 730.27 477.60, 728.99 481.11, 727.00 484.37 C 725.01 487.63, 723.85 490.17, 722.55 492.81 C 721.24 495.46, 721.02 496.97, 720.46 497.61 C 719.90 498.25, 720.52 498.14, 719.74 496.01 C 718.96 493.88, 717.57 492.19, 716.56 486.94 C 715.55 481.70, 715.22 478.03, 714.69 469.81 C 714.16 461.58, 714.18 456.22, 713.90 445.84 C 713.61 435.46, 713.65 428.91, 713.28 417.91 C 712.90 406.91, 712.84 400.66, 712.02 390.82 C 711.21 380.98, 710.74 376.01, 709.20 368.71 C 707.65 361.41, 707.04 358.36, 704.29 354.31 C 701.53 350.26, 699.25 348.74, 695.42 348.46 C 691.59 348.18, 689.29 349.47, 685.14 352.91 C 680.99 356.34, 679.00 358.86, 674.66 365.64 C 670.31 372.42, 667.81 377.04, 663.42 386.80 C 659.03 396.56, 656.61 403.00, 652.69 414.43 C 648.76 425.85, 646.88 432.96, 643.81 443.92 C 640.73 454.88, 639.52 460.78, 637.31 469.23 C 635.10 477.68, 633.95 481.27, 632.74 486.16 C 631.54 491.06, 631.10 492.25, 631.28 493.70 C 631.46 495.15, 633.38 495.14, 633.66 493.41 C 633.94 491.68, 633.04 490.05, 632.68 485.07 C 632.32 480.08, 631.91 476.44, 631.87 468.46 C 631.83 460.49, 632.03 455.32, 632.48 445.18 C 632.94 435.04, 633.43 428.81, 634.15 417.75 C 634.86 406.70, 635.38 400.26, 636.06 389.91 C 636.75 379.56, 637.20 374.18, 637.55 365.99 C 637.90 357.81, 638.43 354.48, 637.82 348.98 C 637.21 343.49, 636.99 341.07, 634.50 338.51 C 632.00 335.96, 629.25 335.62, 625.35 336.20 C 621.46 336.78, 619.72 338.78, 615.04 341.40 C 610.35 344.01, 607.79 345.76, 601.92 349.28 C 596.05 352.80, 592.59 354.92, 585.69 358.98 C 578.80 363.04, 574.89 365.47, 567.46 369.60 C 560.03 373.72, 555.85 376.05, 548.56 379.61 C 541.27 383.17, 537.28 384.90, 531.00 387.39 C 524.72 389.89, 521.56 390.67, 517.15 392.10 C 512.75 393.53, 511.06 393.33, 508.96 394.55 C 506.85 395.77, 506.84 396.73, 506.62 398.20 C 506.40 399.67, 506.74 400.88, 507.85 401.91" style="stroke: black; fill: black;"/><path d="M 776.46,257.82 C 775.43 258.89, 775.29 259.30, 775.17 263.02 C 775.05 266.74, 775.78 269.05, 775.87 276.41 C 775.95 283.76, 775.99 288.74, 775.61 299.80 C 775.22 310.85, 774.84 318.12, 773.95 331.67 C 773.06 345.22, 772.30 353.32, 771.14 367.53 C 769.99 381.74, 769.29 389.43, 768.17 402.70 C 767.05 415.97, 766.41 422.67, 765.55 433.86 C 764.69 445.05, 764.30 450.19, 763.85 458.64 C 763.41 467.09, 763.16 470.49, 763.31 476.12 C 763.45 481.75, 762.92 484.29, 764.57 486.78 C 766.21 489.26, 769.11 489.93, 771.52 488.55 C 773.94 487.17, 774.50 485.16, 776.64 479.86 C 778.77 474.57, 779.40 470.78, 782.18 462.09 C 784.96 453.40, 786.56 447.54, 790.54 436.43 C 794.52 425.32, 796.98 418.45, 802.06 406.53 C 807.15 394.62, 810.36 387.85, 815.97 376.84 C 821.59 365.84, 824.79 360.22, 830.12 351.52 C 835.46 342.82, 838.23 338.99, 842.67 333.33 C 847.11 327.66, 849.42 325.90, 852.32 323.19 C 855.22 320.48, 856.02 320.78, 857.17 319.76 C 858.32 318.75, 857.92 318.48, 858.06 318.10 C 858.19 317.71, 857.62 318.03, 857.84 317.85 C 858.07 317.68, 859.11 317.70, 859.19 317.22 C 859.27 316.74, 859.23 315.91, 858.26 315.44 C 857.29 314.97, 856.31 314.10, 854.34 314.88 C 852.38 315.66, 851.39 316.12, 848.43 319.35 C 845.47 322.58, 843.74 324.92, 839.54 331.03 C 835.34 337.14, 832.66 341.01, 827.44 349.91 C 822.22 358.82, 819.05 364.46, 813.43 375.55 C 807.82 386.65, 804.59 393.44, 799.37 405.37 C 794.16 417.31, 791.64 424.19, 787.34 435.23 C 783.04 446.27, 781.14 452.10, 777.88 460.57 C 774.61 469.04, 773.00 472.68, 771.01 477.59 C 769.02 482.50, 768.21 483.64, 767.91 485.11 C 767.61 486.58, 769.49 486.78, 769.51 484.93 C 769.54 483.08, 768.49 481.10, 768.05 475.86 C 767.60 470.63, 767.23 467.11, 767.30 458.74 C 767.36 450.38, 767.68 445.22, 768.37 434.05 C 769.06 422.89, 769.66 416.17, 770.73 402.91 C 771.80 389.65, 772.50 381.95, 773.72 367.75 C 774.95 353.54, 775.74 345.44, 776.86 331.89 C 777.98 318.34, 778.48 311.06, 779.31 300.00 C 780.14 288.94, 780.46 283.97, 781.01 276.57 C 781.56 269.17, 782.20 266.78, 782.06 263.00 C 781.92 259.21, 781.43 258.68, 780.31 257.65 C 779.19 256.61, 777.49 256.74, 776.46 257.82" style="stroke: black; fill: black;"/><path d="M 810.75,383.96 C 809.86 385.76, 810.22 387.95, 811.02 392.10 C 811.82 396.25, 812.93 399.07, 814.74 404.72 C 816.54 410.38, 817.84 414.04, 820.05 420.36 C 822.26 426.67, 823.64 430.01, 825.80 436.30 C 827.96 442.59, 829.03 445.84, 830.84 451.79 C 832.65 457.74, 833.39 460.73, 834.86 466.05 C 836.33 471.37, 836.93 473.93, 838.18 478.39 C 839.44 482.85, 839.62 484.98, 841.15 488.33 C 842.67 491.69, 843.53 493.33, 845.79 495.18 C 848.06 497.03, 849.97 497.40, 852.49 497.57 C 855.00 497.74, 856.85 497.17, 858.36 496.01 C 859.86 494.85, 860.42 493.32, 860.00 491.77 C 859.59 490.23, 857.58 488.90, 856.29 488.29 C 854.99 487.69, 854.25 488.44, 853.54 488.75 C 852.82 489.07, 853.12 489.79, 852.71 489.87 C 852.30 489.96, 852.28 490.21, 851.49 489.16 C 850.69 488.11, 850.12 487.22, 848.74 484.63 C 847.36 482.03, 846.25 480.25, 844.58 476.19 C 842.91 472.14, 842.13 469.56, 840.40 464.36 C 838.66 459.16, 837.82 456.15, 835.90 450.21 C 833.98 444.26, 832.87 440.96, 830.80 434.63 C 828.74 428.29, 827.51 424.90, 825.56 418.55 C 823.61 412.20, 822.56 408.50, 821.06 402.87 C 819.56 397.25, 819.19 394.39, 818.07 390.43 C 816.95 386.48, 816.93 384.38, 815.47 383.08 C 814.00 381.78, 811.64 382.15, 810.75 383.96" style="stroke: black; fill: black;"/><path d="M 896.40,360.05 C 895.29 361.11, 895.03 361.67, 894.82 365.26 C 894.61 368.84, 895.27 371.20, 895.35 377.96 C 895.44 384.72, 895.55 389.51, 895.26 399.05 C 894.97 408.59, 894.60 414.87, 893.91 425.64 C 893.22 436.41, 892.61 442.79, 891.82 452.89 C 891.03 463.00, 890.57 468.22, 889.98 476.19 C 889.39 484.16, 889.12 487.62, 888.89 492.75 C 888.66 497.88, 888.43 499.36, 888.83 501.83 C 889.22 504.31, 890.06 504.51, 890.87 505.14 C 891.68 505.76, 892.19 505.65, 892.88 504.95 C 893.57 504.26, 894.09 504.07, 894.32 501.65 C 894.55 499.22, 894.11 497.88, 894.03 492.83 C 893.96 487.78, 893.68 484.34, 893.95 476.40 C 894.22 468.47, 894.64 463.26, 895.37 453.16 C 896.09 443.06, 896.72 436.68, 897.58 425.90 C 898.43 415.13, 898.94 408.83, 899.64 399.28 C 900.35 389.73, 900.59 384.93, 901.10 378.14 C 901.61 371.35, 902.32 368.96, 902.18 365.32 C 902.03 361.69, 901.52 361.02, 900.37 359.96 C 899.22 358.91, 897.51 358.99, 896.40 360.05" style="stroke: black; fill: black;"/><path d="M 912.32,275.02 C 913.58 273.75, 913.85 272.56, 913.38 272.08 C 912.90 271.60, 911.44 271.93, 909.93 272.60 C 908.42 273.27, 907.01 274.29, 905.83 275.43 C 904.65 276.58, 903.78 277.73, 904.02 278.33 C 904.27 278.93, 905.41 279.10, 907.06 278.44 C 908.72 277.78, 911.06 276.29, 912.32 275.02" style="stroke: black; fill: black;"/><path d="M 988.26,231.79 C 987.09 232.84, 986.93 233.52, 986.44 237.33 C 985.95 241.14, 986.33 243.58, 985.81 250.84 C 985.30 258.10, 985.01 262.94, 983.85 273.63 C 982.69 284.31, 981.79 291.00, 980.01 304.25 C 978.23 317.51, 977.05 325.37, 974.96 339.89 C 972.86 354.41, 971.57 362.45, 969.54 376.85 C 967.50 391.24, 966.36 398.74, 964.77 411.86 C 963.17 424.98, 962.48 431.48, 961.57 442.43 C 960.65 453.37, 960.42 458.33, 960.19 466.59 C 959.97 474.84, 960.27 478.48, 960.45 483.70 C 960.63 488.93, 960.34 490.36, 961.07 492.71 C 961.81 495.07, 963.22 495.07, 964.13 495.46 C 965.03 495.86, 965.44 494.89, 965.61 494.69 C 965.77 494.50, 964.84 494.48, 964.94 494.47 C 965.04 494.46, 965.62 495.24, 966.11 494.64 C 966.60 494.04, 967.57 493.77, 967.41 491.49 C 967.25 489.22, 966.07 488.25, 965.33 483.27 C 964.59 478.29, 963.91 474.72, 963.73 466.60 C 963.54 458.47, 963.69 453.52, 964.39 442.64 C 965.10 431.75, 965.75 425.24, 967.25 412.15 C 968.76 399.06, 969.88 391.56, 971.91 377.18 C 973.95 362.80, 975.25 354.76, 977.45 340.26 C 979.64 325.75, 980.86 317.90, 982.89 304.67 C 984.91 291.44, 985.95 284.76, 987.57 274.11 C 989.19 263.46, 989.84 258.66, 990.97 251.43 C 992.10 244.21, 992.98 241.86, 993.24 237.99 C 993.49 234.12, 993.26 233.33, 992.26 232.09 C 991.26 230.85, 989.42 230.75, 988.26 231.79" style="stroke: black; fill: black;"/><path d="M 939.75,384.22 C 940.90 385.30, 941.59 385.93, 944.69 385.67 C 947.79 385.41, 949.89 384.13, 955.26 382.92 C 960.62 381.71, 964.35 380.94, 971.51 379.62 C 978.67 378.31, 983.21 377.58, 991.06 376.35 C 998.90 375.13, 1003.77 374.47, 1010.72 373.51 C 1017.66 372.55, 1021.04 372.28, 1025.79 371.56 C 1030.54 370.85, 1032.80 370.97, 1034.47 369.95 C 1036.14 368.92, 1035.99 367.14, 1034.14 366.44 C 1032.29 365.75, 1030.02 366.07, 1025.20 366.47 C 1020.37 366.88, 1016.98 367.48, 1010.01 368.48 C 1003.04 369.47, 998.20 370.35, 990.33 371.46 C 982.46 372.56, 977.90 373.13, 970.65 374.00 C 963.40 374.87, 959.60 375.22, 954.08 375.81 C 948.56 376.40, 946.07 376.05, 943.04 376.95 C 940.01 377.84, 939.58 378.85, 938.92 380.30 C 938.26 381.76, 938.60 383.15, 939.75 384.22" style="stroke: black; fill: black;"/></svg>